<?xml version="1.0" encoding="iso-8859-1"?>
<!-- Uploaded to: SVG Repo, www.svgrepo.com, Generator: SVG Repo Mixer Tools -->
<!DOCTYPE svg PUBLIC "-//W3C//DTD SVG 1.1//EN" "http://www.w3.org/Graphics/SVG/1.1/DTD/svg11.dtd">
<svg fill="#000000" version="1.1" id="Capa_1" xmlns="http://www.w3.org/2000/svg" xmlns:xlink="http://www.w3.org/1999/xlink" 
	 width="800px" height="800px" viewBox="0 0 77.945 77.945"
	 xml:space="preserve">
<g>
	<g>
		<path d="M46.73,22.365l-12.693,7.307c-0.365,2.98-1.859,4.161-2.722,4.601l1.61,2.816c2.003-1.307,10.237-6.706,14.843-10.142
			c4.603-3.432,4.03-7.117,3.891-7.749l-1.322-1.69l-0.676,0.263C50.025,20.114,46.872,22.269,46.73,22.365z"/>
		<path d="M49.886,35.049c0.013-0.096,0.021-0.193,0.021-0.292c-0.012-0.427-1.041-2.617-2.082-4.607l-4.629,3.857
			c1.895,1.458,4.019,2.935,4.479,3.002l0.064-0.007c0.123-0.014,0.269,0.053,0.365,0.148l3.865,3.865h5.244
			c0.277,0,0.504,0.225,0.504,0.504v2.402h2.73v-8.901h-2.73v2.491c0,0.278-0.227,0.505-0.505,0.505h-4.429
			c-0.135,0-0.262-0.054-0.355-0.148l-2.398-2.399C49.918,35.358,49.865,35.203,49.886,35.049z M47.105,35.919
			c-1.002,0-1.817-0.814-1.817-1.818c0-1.003,0.815-1.817,1.817-1.817c1.004,0,1.818,0.814,1.818,1.817S48.109,35.919,47.105,35.919
			z"/>
		<circle cx="47.105" cy="34.1" r="0.809"/>
		<path d="M32.456,27.999c0.04-0.118,0.124-0.218,0.233-0.278c11.375-6.269,13.821-8.995,14.334-9.967L29.945,28.367
			c0.069,0.042,0.132,0.092,0.176,0.167c0.144,0.239,0.066,0.548-0.173,0.691l-12.612,7.568c-0.082,0.05-0.172,0.072-0.26,0.072
			c-0.168,0-0.33-0.084-0.426-0.234l-1.061,0.658c0.756,0.8,1.598,1.204,2.507,1.204c1.147,0,2-0.636,2.008-0.642
			c0.261-0.182,6.03-4.195,8.74-5.461C31.324,31.233,32.445,28.032,32.456,27.999z"/>
		<polygon points="22.488,39.154 23.793,41.002 29.9,37.272 28.793,35.43 		"/>
		<path d="M38.973,0C17.483,0,0,17.483,0,38.973c0,21.49,17.482,38.973,38.973,38.973c21.489,0,38.973-17.482,38.973-38.973
			C77.943,17.483,60.462,0,38.973,0z M56.709,37.007v-2.492c0-0.279,0.227-0.504,0.505-0.504h3.737c0.281,0,0.506,0.225,0.508,0.503
			v9.91c0,0.279-0.227,0.504-0.505,0.504h-3.739c-0.277,0-0.504-0.225-0.504-0.504v-2.4h-4.948c-0.135,0-0.263-0.053-0.356-0.148
			l-3.875-3.874c-1-0.184-3.812-2.301-5.448-3.586c-0.12-0.094-0.19-0.236-0.193-0.389c-0.002-0.152,0.064-0.298,0.183-0.395
			l5.586-4.657c0.117-0.098,0.271-0.137,0.42-0.107c0.148,0.029,0.277,0.123,0.349,0.257c0.585,1.095,2.491,4.733,2.491,5.633
			c0,0.057-0.002,0.112-0.005,0.168l2.083,2.083L56.709,37.007L56.709,37.007z M48.878,16.99l1.44-0.56
			c0.207-0.079,0.442-0.017,0.58,0.16l1.623,2.07c0.041,0.053,0.069,0.11,0.088,0.172c0.056,0.194,1.293,4.799-4.238,8.923
			c-5.268,3.929-15.243,10.404-15.344,10.47c-0.082,0.054-0.178,0.081-0.274,0.081c-0.04,0-0.079-0.004-0.119-0.015
			c-0.135-0.032-0.249-0.119-0.318-0.239l-2.163-3.785c-0.079-0.138-0.088-0.308-0.023-0.453c0.065-0.146,0.196-0.254,0.352-0.289
			c0.087-0.021,2.229-0.582,2.581-4.214c0.017-0.163,0.109-0.308,0.25-0.389l12.884-7.415c0.83-0.563,2.94-2.395,2.393-3.873
			C48.49,17.379,48.621,17.091,48.878,16.99z M30.854,37.873l-6.938,4.236c-0.081,0.049-0.172,0.072-0.262,0.072
			c-0.159,0-0.315-0.076-0.412-0.213l-1.893-2.681c-0.082-0.114-0.111-0.259-0.082-0.396c0.03-0.137,0.116-0.257,0.237-0.329
			l7.207-4.258c0.241-0.141,0.547-0.063,0.688,0.175l1.623,2.703C31.165,37.422,31.09,37.729,30.854,37.873z M14.426,37.484
			c-0.089-0.113-0.124-0.258-0.1-0.399c0.025-0.141,0.108-0.265,0.23-0.341l32.616-20.271c0.148-0.091,0.331-0.102,0.486-0.025
			c0.225,0.108,0.49,0.399,0.502,0.861c0.052,1.978-4.937,5.748-14.819,11.206c-0.298,0.766-1.548,3.614-4.069,4.791
			c-2.633,1.228-8.515,5.32-8.573,5.361c-0.029,0.023-1.119,0.835-2.603,0.835C16.71,39.502,15.475,38.823,14.426,37.484z
			 M25.486,63.576c1.026,0,2.072-0.213,2.75-0.543l0.348,1.336c-0.619,0.311-1.858,0.621-3.446,0.621
			c-3.681,0-6.449-2.324-6.449-6.605c0-4.086,2.769-6.855,6.816-6.855c1.627,0,2.653,0.35,3.099,0.582l-0.406,1.375
			c-0.639-0.311-1.549-0.543-2.634-0.543c-3.061,0-5.094,1.957-5.094,5.385C20.47,61.523,22.31,63.576,25.486,63.576z
			 M36.312,63.576c1.026,0,2.072-0.213,2.75-0.543l0.349,1.336c-0.619,0.311-1.859,0.621-3.447,0.621
			c-3.68,0-6.448-2.324-6.448-6.605c0-4.086,2.769-6.855,6.816-6.855c1.627,0,2.653,0.35,3.099,0.582l-0.407,1.375
			c-0.639-0.311-1.549-0.543-2.634-0.543c-3.06,0-5.093,1.957-5.093,5.385C31.296,61.523,33.136,63.576,36.312,63.576z
			 M50.236,53.176h-3.989v11.619h-1.704V53.176h-3.971v-1.434h9.664V53.176z M57.189,64.795H55.33l-4.262-13.053h1.821l2.033,6.43
			c0.562,1.762,1.046,3.352,1.396,4.881h0.037c0.369-1.51,0.91-3.158,1.492-4.861l2.207-6.449h1.803L57.189,64.795z"/>
	</g>
</g>
</svg>